<svg width="557" height="388" viewBox="0 0 557 388" fill="none" xmlns="http://www.w3.org/2000/svg">
<g clip-path="url(#clip0_710_493)">
<path d="M390.473 166.56C359.803 147.524 318.58 108.838 318.58 108.838L292.927 225.656L224.464 108.838C224.464 108.838 183.241 147.527 152.571 166.56C121.902 185.596 74.7972 212.039 70.7146 276.847C70.7146 276.847 86.0157 258.413 139.073 268.766C187.393 278.194 226.211 281.729 294.977 277.799C366.51 282.593 353.321 275.567 403.969 268.766C457.55 261.572 472.327 276.847 472.327 276.847C468.247 212.036 421.139 185.594 390.473 166.56Z" fill="#EA552B"/>
<path d="M265.873 75.4285C269.935 70.78 277.313 71.1727 283.195 73.0723C289.077 74.9689 294.912 78.0146 301.062 77.3834C306.3 76.8452 310.875 73.7035 315.917 72.2025C321.761 70.463 328.261 71.0331 333.712 73.7617C338.71 76.2663 343.084 80.5716 348.66 81.0225C355.971 81.613 362.039 75.3849 369.222 73.8897C378.627 71.9349 387.757 78.3288 397.351 78.8291C405.432 79.2509 413.279 78.4189 421.363 78.736C431.161 79.1229 439.417 85.8455 439.417 97.4231C439.417 105.853 434.218 115.508 425.831 118.914C416.618 122.655 405.333 114.973 396.882 120.893C394.943 122.251 393.534 124.235 391.676 125.704C387.078 129.343 380.499 129.247 374.827 127.74C369.152 126.233 363.827 123.516 358.062 122.408C345.572 120.011 333.032 125.401 320.382 126.708C316.101 127.15 311.689 127.109 307.598 125.771C301.768 123.863 296.729 119.389 290.605 119.045C285.997 118.786 281.647 120.936 277.161 122.018C272.676 123.1 267.106 122.693 264.604 118.824C263.537 117.175 263.225 115.165 262.989 113.216C261.464 100.591 262.146 87.7043 264.998 75.3093L265.873 75.4285Z" fill="#00153B"/>
<path d="M374.168 150.596C374.168 106.336 321.73 108.838 321.73 108.838H252.1V37.6907H202.593V199.516H313.748C340.819 198.239 374.168 190.134 374.168 150.596Z" fill="#F6F6F7"/>
<path d="M304.393 349.763H293.708L304.393 357.07V408.998C304.393 408.998 279.148 409.752 276.147 388.836V321.482C276.147 321.482 290.27 328.062 304.393 330.739V349.763Z" fill="#24244F"/>
<path d="M406.893 223.343H361.506L356.076 235.398L354.875 223.343H322.409V251.222H382.709C409.97 248.081 406.893 223.343 406.893 223.343Z" fill="#24244F"/>
<path d="M322.409 251.222C321.969 258.605 323.573 270.483 312.783 270.483C304.39 270.483 304.393 260.674 304.393 253.605V252.438H202.593V279.247C202.593 363.642 276.144 388.83 276.144 388.83V320.851C276.144 320.851 287.374 329.889 304.39 330.73C385.536 334.738 376.735 251.217 376.735 251.217C378.875 251.222 322.409 251.222 322.409 251.222Z" fill="#F1C0CF"/>
<path d="M258.513 84.6208C254.736 82.1104 251.459 80.0829 248.286 77.3892C245.804 80.0712 244.337 83.1547 243.486 85.6506C248.647 87.2156 254.171 87.2185 258.513 84.6208Z" fill="#F1C0CF"/>
<path d="M283.691 85.0165C283.382 82.2297 281.134 79.9404 278.346 79.5768C276.442 79.3295 274.686 79.952 273.4 81.0923L272.231 74.8206C271.924 73.1858 270.612 71.9262 268.965 71.6644C258.539 69.9976 252.167 73.1945 248.286 77.3892C251.459 80.0858 254.737 82.1105 258.513 84.6209C254.171 87.2186 248.648 87.2157 243.486 85.6478C243.238 86.375 243.04 87.0528 242.885 87.6549C242.532 89.0338 243.562 90.3748 244.985 90.3748H252.097L246.86 117.832C245.775 123.525 248.134 129.352 252.926 132.627C261.047 138.178 268.46 136.095 273.724 132.787C278.78 129.611 281.329 123.627 280.235 117.766L275.342 91.5151C276.022 91.7682 276.754 91.9136 277.521 91.9136C281.183 91.9136 284.105 88.7516 283.691 85.0165Z" fill="#F1C0CF"/>
<path d="M202.593 199.519V257.203H304.39L304.451 199.519C307.438 199.519 202.593 199.519 202.593 199.519Z" fill="#24244F"/>
<path d="M297.38 154.698H262.044C257.504 154.584 252.447 155.015 249.907 158.703C249.336 159.532 248.933 160.524 249.018 161.531C249.257 164.393 252.824 165.437 255.652 165.76C257.122 165.929 258.589 166.098 260.059 166.266V166.476C259.989 166.47 259.919 166.464 259.849 166.458C255.705 166.13 250.838 166.101 248.257 169.391C247.749 170.036 247.359 170.816 247.362 171.639C247.365 172.977 248.385 174.1 249.499 174.828C250.814 175.686 252.246 176.163 253.745 176.427C252.17 176.611 250.663 177.021 249.549 177.812C247.227 179.456 247.117 183.188 249.006 185.323C250.155 186.62 251.987 187.007 253.69 187.292C255.413 187.583 257.142 187.836 258.875 188.069C254.696 187.897 250.021 188.581 248.082 192.2C246.417 195.307 249.525 198.271 252.29 199.004C255.708 199.911 259.344 199.635 262.855 199.522H297.386V154.698H297.38Z" fill="#F1C0CF"/>
<path d="M252.051 15.4664C252.071 13.625 251.92 11.7516 250.876 10.2681C249.875 8.8485 248.187 8.02818 246.475 7.71401C244.763 7.39694 243.005 7.52784 241.27 7.65874C237.983 7.906 234.417 8.2958 231.696 9.96845C231.62 9.05795 231.544 8.15035 231.439 7.23112C231.244 5.50902 230.704 3.3244 229.623 1.84956C228.666 0.54926 226.928 0.505626 225.426 0.85761C222.688 1.50049 222.006 5.2734 221.574 7.5162C222.023 5.50903 220.868 0.203094 216.949 0.467809C212.738 0.752886 213.082 5.55557 212.423 7.5162C212.557 6.23626 210.863 2.36154 209.664 1.64594C207.626 0.427084 204.698 1.15141 203.634 3.1615C202.394 5.5003 202.488 7.87691 202.549 10.4135C202.59 12.0949 202.633 13.7792 202.674 15.4606H202.587V37.685H252.095V15.4606H252.051V15.4664Z" fill="#F1C0CF"/>
<path d="M258.244 76.6969C259.895 76.7813 261.155 78.0729 261.406 79.6611C261.583 80.7927 263.31 80.3128 263.132 79.187C262.756 76.7929 260.63 75.0359 258.244 74.9108C257.093 74.8497 257.095 76.6358 258.244 76.6969Z" fill="#24244F"/>
<path d="M253.626 73.2702C251.258 73.9014 248.893 74.5356 246.525 75.1668C245.915 75.3297 245.764 75.9639 245.988 76.4788C246.487 77.6133 247.347 78.3201 248.502 78.7361C249.59 79.1259 250.056 77.4009 248.977 77.014C248.239 76.7493 247.84 76.278 247.534 75.577C247.356 76.0133 247.178 76.4526 246.997 76.8889C249.365 76.2577 251.73 75.6235 254.098 74.9923C255.212 74.6956 254.742 72.9735 253.626 73.2702Z" fill="#24244F"/>
<path d="M249.26 83.9779C250.837 86.0404 253.847 86.6745 256.002 85.0775C256.917 84.3997 256.025 82.8492 255.098 83.5357C253.803 84.4957 251.835 84.4259 250.805 83.0761C250.114 82.1744 248.56 83.0616 249.26 83.9779Z" fill="#24244F"/>
<path d="M276.829 87.4367C278.48 86.6804 280.133 85.9241 281.784 85.1678C282.831 84.6878 281.921 83.1489 280.88 83.626C279.229 84.3823 277.576 85.1387 275.925 85.895C274.878 86.3721 275.788 87.9138 276.829 87.4367Z" fill="#24244F"/>
<path d="M231.5 8.36269C228.546 9.84626 223.458 13.4126 225.388 17.363C227.444 21.5693 235.329 20.365 238.893 20.173C238.814 19.5883 238.735 19.0036 238.654 18.4189C231.142 21.5286 225.802 27.9138 224.286 35.9163C224.073 37.0392 225.799 37.522 226.012 36.3905C227.406 29.0424 232.171 23.018 239.129 20.141C239.978 19.7891 239.995 18.3259 238.89 18.3869C235.915 18.5469 232.603 18.8844 229.675 18.2037C226.773 17.5317 227.068 14.1748 228.94 12.1705C229.861 11.1844 231.217 10.5008 232.401 9.90444C233.434 9.38955 232.53 7.84781 231.5 8.36269Z" fill="#24244F"/>
<path d="M211.274 6.42232C211.274 13.5405 211.274 20.6616 211.274 27.7799C211.274 28.9289 213.064 28.9318 213.064 27.7799C213.064 20.6616 213.064 13.5405 213.064 6.42232C213.064 5.27328 211.274 5.27037 211.274 6.42232Z" fill="#24244F"/>
<path d="M220.76 5.8813C220.76 13.5144 220.76 21.1475 220.76 28.7777C220.76 29.9267 222.551 29.9296 222.551 28.7777C222.551 28.5333 222.551 28.2919 222.551 28.0475C222.551 26.8985 220.76 26.8956 220.76 28.0475C220.76 28.2919 220.76 28.5333 220.76 28.7777C220.76 29.9267 222.551 29.9296 222.551 28.7777C222.551 21.1446 222.551 13.5115 222.551 5.8813C222.551 4.73226 220.76 4.72936 220.76 5.8813Z" fill="#24244F"/>
<path d="M201.945 29.6417C204.289 35.2239 212 33.656 212.892 27.9545C213.067 26.8287 211.343 26.3458 211.165 27.4803C210.903 29.1559 209.955 30.7151 208.264 31.2794C206.453 31.8816 204.403 30.91 203.674 29.1704C203.234 28.1203 201.498 28.5799 201.945 29.6417Z" fill="#24244F"/>
<path d="M211.169 27.7653C211.846 30.5317 214.208 32.821 217.141 32.9897C220.052 33.1585 222.726 30.8924 221.874 27.8554C221.565 26.75 219.836 27.2184 220.148 28.3296C220.909 31.0437 217.529 31.6429 215.695 30.8109C214.219 30.1448 213.274 28.8241 212.898 27.2853C212.624 26.1741 210.895 26.6482 211.169 27.7653Z" fill="#24244F"/>
<path d="M221.011 28.2949C221.437 30.9944 224.609 32.4053 226.986 31.2562C228.024 30.7559 227.117 29.2141 226.082 29.7145C224.65 30.4068 222.971 29.2898 222.737 27.8207C222.559 26.6863 220.833 27.1662 221.011 28.2949Z" fill="#24244F"/>
<path d="M202.954 28.1319C211.808 28.1319 220.661 28.1319 229.515 28.1319C230.666 28.1319 230.669 26.3458 229.515 26.3458C220.661 26.3458 211.808 26.3458 202.954 26.3458C201.802 26.3458 201.799 28.1319 202.954 28.1319Z" fill="#24244F"/>
<path d="M232.057 18.3172C231.908 16.025 232.034 13.7676 232.474 11.5132C232.693 10.3903 230.967 9.90743 230.748 11.039C230.281 13.4505 230.109 15.865 230.267 18.3172C230.342 19.4575 232.133 19.4662 232.057 18.3172Z" fill="#24244F"/>
<path d="M257.97 166.551C264.564 166.551 271.16 166.551 277.754 166.551C278.905 166.551 278.908 164.765 277.754 164.765C271.16 164.765 264.564 164.765 257.97 164.765C256.818 164.765 256.815 166.551 257.97 166.551Z" fill="#24244F"/>
<path d="M253.092 177.905C261.041 177.905 268.991 177.905 276.94 177.905C278.092 177.905 278.095 176.119 276.94 176.119C268.991 176.119 261.041 176.119 253.092 176.119C251.94 176.119 251.937 177.905 253.092 177.905Z" fill="#24244F"/>
<path d="M253.905 188.45C261.764 188.45 269.623 188.45 277.483 188.45C278.634 188.45 278.637 186.664 277.483 186.664C269.623 186.664 261.764 186.664 253.905 186.664C252.753 186.661 252.75 188.45 253.905 188.45Z" fill="#24244F"/>
<path d="M255.719 155.384C255.719 169.713 255.719 184.04 255.719 198.37C255.719 199.519 257.51 199.522 257.51 198.37C257.51 184.04 257.51 169.713 257.51 155.384C257.513 154.235 255.719 154.232 255.719 155.384Z" fill="#24244F"/>
<path d="M244.504 236.759C244.504 236.398 244.504 236.038 244.504 235.677C244.504 234.528 242.713 234.525 242.713 235.677C242.713 236.038 242.713 236.398 242.713 236.759C242.71 237.908 244.504 237.911 244.504 236.759Z" fill="#24244F"/>
<path d="M241.646 250.501C241.147 266.617 243.232 283.678 251.196 297.981C258.137 310.446 269.793 320.226 282.294 326.844C283.312 327.382 284.219 325.84 283.198 325.302C270.956 318.821 259.542 309.291 252.742 297.082C244.926 283.046 242.946 266.308 243.436 250.504C243.471 249.352 241.681 249.352 241.646 250.501Z" fill="#24244F"/>
<path d="M277.214 389.587C280.195 389.587 283.178 389.587 286.158 389.587C287.31 389.587 287.313 387.801 286.158 387.801C283.178 387.801 280.195 387.801 277.214 387.801C276.06 387.801 276.06 389.587 277.214 389.587Z" fill="#F6F6F7"/>
<path d="M277.214 383.908C280.466 383.908 283.718 383.908 286.972 383.908C288.124 383.908 288.127 382.122 286.972 382.122C283.72 382.122 280.469 382.122 277.214 382.122C276.06 382.122 276.06 383.908 277.214 383.908Z" fill="#F6F6F7"/>
<path d="M375.676 250.818C375.676 248.116 375.676 245.41 375.676 242.708C375.676 241.559 373.885 241.556 373.885 242.708C373.885 245.41 373.885 248.116 373.885 250.818C373.882 251.967 375.676 251.967 375.676 250.818Z" fill="#F6F6F7"/>
<path d="M369.17 251.627C369.17 248.383 369.17 245.14 369.17 241.893C369.17 240.744 367.379 240.741 367.379 241.893C367.379 245.137 367.379 248.38 367.379 251.627C367.379 252.779 369.17 252.779 369.17 251.627Z" fill="#F6F6F7"/>
<path d="M243.147 256.494C243.147 250.815 243.147 245.14 243.147 239.462C243.147 238.313 241.357 238.31 241.357 239.462C241.357 245.14 241.357 250.815 241.357 256.494C241.357 257.643 243.147 257.645 243.147 256.494Z" fill="#F6F6F7"/>
<path d="M33.5011 153.898C38.5081 158.075 43.9089 161.659 49.7237 164.623C50.7473 165.144 51.6571 163.605 50.6277 163.081C44.947 160.187 39.6629 156.719 34.7667 152.635C33.8918 151.899 32.6175 153.159 33.5011 153.898Z" fill="#24244F"/>
<path d="M83.5135 104.009C88.3923 108.876 93.2711 113.742 98.1498 118.609C98.9663 119.424 100.232 118.161 99.4154 117.347C94.5367 112.48 89.6579 107.613 84.7792 102.747C83.9626 101.929 82.697 103.195 83.5135 104.009Z" fill="#24244F"/>
<path d="M150.842 58.5858C154.271 64.3979 157.701 70.21 161.13 76.0221C161.713 77.0112 163.265 76.1152 162.676 75.1203C159.246 69.3082 155.817 63.4962 152.387 57.6841C151.804 56.6921 150.256 57.591 150.842 58.5858Z" fill="#24244F"/>
<path d="M453.05 70.8818C456.343 64.8195 459.635 58.7602 462.927 52.6979C463.476 51.6856 461.93 50.7838 461.382 51.7961C458.089 57.8584 454.797 63.9177 451.505 69.98C450.954 70.9894 452.502 71.8941 453.05 70.8818Z" fill="#24244F"/>
<path d="M506.44 112.462C512.537 108.407 518.638 104.355 524.736 100.3C525.689 99.666 524.794 98.1184 523.832 98.7584C517.734 102.813 511.633 106.866 505.536 110.921C504.582 111.555 505.477 113.102 506.44 112.462Z" fill="#24244F"/>
<path d="M529.498 174.327C535.896 170.304 542.825 167.634 550.267 166.304C551.398 166.101 550.92 164.379 549.791 164.582C542.198 165.938 535.117 168.681 528.594 172.783C527.62 173.396 528.518 174.944 529.498 174.327Z" fill="#24244F"/>
<path d="M119.108 256.267C120.835 245.169 125.521 234.958 132.89 226.461C133.64 225.595 132.38 224.326 131.625 225.199C124.057 233.929 119.158 244.381 117.382 255.792C117.207 256.915 118.933 257.401 119.108 256.267Z" fill="#24244F"/>
<path d="M147.308 208.621C151.971 204.001 156.269 199.068 160.23 193.835C160.924 192.915 159.369 192.025 158.684 192.933C154.817 198.044 150.597 202.847 146.042 207.358C145.223 208.17 146.489 209.432 147.308 208.621Z" fill="#24244F"/>
<path d="M178.502 264.793C180.496 257.797 183.448 251.269 187.37 245.14C187.991 244.168 186.443 243.269 185.824 244.238C181.823 250.489 178.808 257.186 176.775 264.318C176.458 265.427 178.187 265.898 178.502 264.793Z" fill="#24244F"/>
<path d="M428.87 257.916C428.855 248.348 426.035 239.249 420.602 231.36C419.955 230.418 418.401 231.311 419.057 232.262C424.32 239.904 427.065 248.642 427.079 257.916C427.079 259.065 428.873 259.068 428.87 257.916Z" fill="#24244F"/>
<path d="M413.834 213.746C409.768 207.102 404.791 201.191 398.92 196.066C398.057 195.312 396.783 196.569 397.655 197.328C403.414 202.355 408.302 208.129 412.288 214.648C412.886 215.628 414.434 214.733 413.834 213.746Z" fill="#24244F"/>
<path d="M296.726 156.007C307.093 156.007 317.46 156.007 327.824 156.007C328.976 156.007 328.979 154.22 327.824 154.22C317.457 154.22 307.09 154.22 296.726 154.22C295.574 154.22 295.571 156.007 296.726 156.007Z" fill="#24244F"/>
<path d="M306.198 155.722C306.198 170.93 306.198 186.135 306.198 201.343C306.198 202.492 307.988 202.495 307.988 201.343C307.988 186.135 307.988 170.93 307.988 155.722C307.988 154.572 306.198 154.57 306.198 155.722Z" fill="#24244F"/>
<path d="M203.429 49.5592C219.486 49.5592 235.545 49.5592 251.602 49.5592C252.753 49.5592 252.756 47.7731 251.602 47.7731C235.545 47.7731 219.486 47.7731 203.429 47.7731C202.275 47.7702 202.275 49.5592 203.429 49.5592Z" fill="#24244F"/>
<path d="M246.236 121.861C246.236 129.701 246.236 137.541 246.236 145.38C246.236 146.529 248.026 146.532 248.026 145.38C248.026 137.541 248.026 129.701 248.026 121.861C248.026 120.712 246.236 120.709 246.236 121.861Z" fill="#24244F"/>
<path d="M247.434 145.892C252.401 143.073 257.37 140.257 262.336 137.439C263.339 136.871 262.435 135.327 261.432 135.897C256.466 138.716 251.497 141.532 246.53 144.35C245.527 144.918 246.428 146.462 247.434 145.892Z" fill="#24244F"/>
<path d="M262.633 136.534C268.504 140.057 274.654 142.966 281.093 145.29C282.178 145.683 282.647 143.955 281.568 143.568C275.266 141.293 269.279 138.437 263.537 134.992C262.546 134.399 261.645 135.944 262.633 136.534Z" fill="#24244F"/>
<path d="M281.769 144.266C281.769 137.308 281.769 130.35 281.769 123.391C281.769 122.242 279.979 122.239 279.979 123.391C279.979 130.35 279.979 137.308 279.979 144.266C279.979 145.415 281.769 145.418 281.769 144.266Z" fill="#24244F"/>
<path d="M310.975 84.9497C316.869 81.5724 323.442 80.6997 330.015 82.4218C331.132 82.7156 331.607 80.9906 330.49 80.6997C323.462 78.8584 316.373 79.7979 310.071 83.408C309.071 83.9781 309.972 85.5228 310.975 84.9497Z" fill="#24244F"/>
<path d="M367.292 85.9154C371.681 82.8057 376.907 82.0814 381.978 83.8966C383.066 84.2864 383.532 82.5585 382.453 82.1745C376.991 80.2197 371.118 81.0197 366.385 84.3737C365.455 85.034 366.35 86.5845 367.292 85.9154Z" fill="#24244F"/>
<path d="M416.581 88.0883C423.256 85.6681 430.704 87.8033 434.921 93.563C435.594 94.4822 437.149 93.5921 436.466 92.6612C431.803 86.2848 423.583 83.6551 416.105 86.3663C415.029 86.756 415.493 88.484 416.581 88.0883Z" fill="#24244F"/>
</g>
<defs>
<clipPath id="clip0_710_493">
<rect width="577" height="410" fill="white" transform="translate(0.5)"/>
</clipPath>
</defs>
</svg>
